<svg width="134" height="49" viewBox="0 0 134 49" fill="none" xmlns="http://www.w3.org/2000/svg">
<path d="M10.8047 12.3242H12.4805V17H0.84375V15.5586L2.88281 15.0781V2.11719L0.84375 1.63672V0.324219L7.44141 0.195312V1.63672L5.40234 2.11719V15.0781H10.3242L10.8047 12.3242ZM16.207 11C16.207 12.3125 16.5273 13.3633 17.168 14.1523C17.8086 14.9336 18.6484 15.3242 19.6875 15.3242C20.3906 15.3242 21.043 15.2266 21.6445 15.0312C22.2461 14.8359 22.7422 14.625 23.1328 14.3984C23.5234 14.1641 23.7188 14.0312 23.7188 14L24.5625 15.2422C24.5625 15.2734 24.3008 15.4688 23.7773 15.8281C23.2617 16.1797 22.6211 16.5039 21.8555 16.8008C21.0977 17.0898 20.293 17.2344 19.4414 17.2344C17.5508 17.2344 16.1172 16.6641 15.1406 15.5234C14.1719 14.3828 13.6875 12.7969 13.6875 10.7656C13.6875 9.5 13.9336 8.35547 14.4258 7.33203C14.9258 6.30859 15.6211 5.50391 16.5117 4.91797C17.4102 4.33203 18.4297 4.03906 19.5703 4.03906C22.9297 4.03906 24.6094 5.91797 24.6094 9.67578C24.6094 9.93359 24.5938 10.1914 24.5625 10.4492C24.5312 10.707 24.5078 10.875 24.4922 10.9531L16.207 11ZM22.0664 9.19531C22.0664 8.21875 21.8555 7.42969 21.4336 6.82812C21.0195 6.21875 20.3555 5.91406 19.4414 5.91406C18.5117 5.91406 17.7734 6.22656 17.2266 6.85156C16.6875 7.47656 16.3789 8.25781 16.3008 9.19531H22.0664ZM28.7344 15.2188C28.7344 15.2344 28.9336 15.2773 29.332 15.3477C29.7305 15.4102 30.2031 15.4414 30.75 15.4414C32.5547 15.4414 33.4609 14.8086 33.4688 13.543C33.4688 13.0273 33.2461 12.6406 32.8008 12.3828C32.3633 12.1172 31.6797 11.8398 30.75 11.5508C29.8984 11.2773 29.207 11.0156 28.6758 10.7656C28.1523 10.5078 27.7031 10.1406 27.3281 9.66406C26.9531 9.17969 26.7656 8.55469 26.7656 7.78906C26.7656 6.58594 27.1719 5.66016 27.9844 5.01172C28.8047 4.36328 29.8633 4.03906 31.1602 4.03906C31.7227 4.03906 32.3047 4.09375 32.9062 4.20312C33.5156 4.30469 34.0312 4.41406 34.4531 4.53125C34.8828 4.64844 35.1523 4.72656 35.2617 4.76562L35.1914 8H33.6328L33.2461 6.125C33.1992 6.10938 33.0938 6.07812 32.9297 6.03125C32.7734 5.98438 32.5508 5.94141 32.2617 5.90234C31.9727 5.86328 31.6523 5.84375 31.3008 5.84375C29.8789 5.84375 29.168 6.37891 29.168 7.44922C29.168 7.96484 29.3945 8.36328 29.8477 8.64453C30.3086 8.91797 31 9.20703 31.9219 9.51172C32.75 9.80078 33.4297 10.0703 33.9609 10.3203C34.4922 10.5625 34.9414 10.918 35.3086 11.3867C35.6758 11.8477 35.8594 12.4297 35.8594 13.1328C35.8594 14.4609 35.3594 15.4766 34.3594 16.1797C33.3594 16.8828 32.1016 17.2344 30.5859 17.2344C29.9297 17.2344 29.3203 17.1953 28.7578 17.1172C28.1953 17.0391 27.7461 16.9609 27.4102 16.8828C27.0742 16.8047 26.8672 16.7461 26.7891 16.707V13.1562H28.4766L28.7344 15.2188ZM3 28.1172L0.960938 27.6367V26.3242L5.51953 26.1953H8.03906C9.8125 26.1953 11.1758 26.6367 12.1289 27.5195C13.082 28.4023 13.5586 29.6016 13.5586 31.1172C13.5586 32.9609 12.9922 34.3633 11.8594 35.3242C10.7344 36.2852 9.14062 36.7656 7.07812 36.7656H5.51953V41.0781L7.55859 41.5586V43H0.960938V41.5586L3 41.0781V28.1172ZM7.07812 34.8438C8.39062 34.8438 9.37891 34.5547 10.043 33.9766C10.707 33.3984 11.0391 32.5664 11.0391 31.4805C11.0391 30.4883 10.7656 29.6797 10.2188 29.0547C9.67969 28.4297 8.91406 28.1172 7.92188 28.1172H5.51953V34.8438H7.07812ZM21.2344 30.0391C23.0078 30.0391 24.3906 30.6133 25.3828 31.7617C26.375 32.9023 26.8711 34.4492 26.8711 36.4023C26.8711 37.7461 26.6211 38.9375 26.1211 39.9766C25.6289 41.0156 24.9258 41.8203 24.0117 42.3906C23.1055 42.9531 22.0586 43.2344 20.8711 43.2344C19.0508 43.2344 17.6367 42.6875 16.6289 41.5938C15.6211 40.5 15.1172 38.8906 15.1172 36.7656C15.1172 35.4219 15.375 34.2422 15.8906 33.2266C16.4141 32.2031 17.1367 31.418 18.0586 30.8711C18.9805 30.3164 20.0391 30.0391 21.2344 30.0391ZM21.1172 31.9609C19.9297 31.9609 19.0508 32.3516 18.4805 33.1328C17.918 33.9062 17.6367 35.0742 17.6367 36.6367C17.6367 39.7539 18.7578 41.3164 21 41.3242C22.1719 41.3242 23.0234 40.9258 23.5547 40.1289C24.0859 39.3242 24.3516 38.1211 24.3516 36.5195C24.3516 33.4805 23.2734 31.9609 21.1172 31.9609ZM35.0859 43H28.4414V41.6758L30.4805 41.0781V26.4414L28.4414 25.9609V24.6367L32.9297 24.5195V41.0781L35.0859 41.6758V43ZM42.2812 40.3633L44.918 32.0781L43.2422 31.7148V30.4023L48.9258 30.2852V31.7148L47.3672 31.9609L43.9688 41.4648L43.7461 42.0391C43.2148 43.4609 42.7188 44.625 42.2578 45.5312C41.7969 46.4375 41.1719 47.2031 40.3828 47.8281C39.6016 48.4531 38.6367 48.7656 37.4883 48.7656C37.2305 48.7656 36.9336 48.7461 36.5977 48.707C36.2617 48.6758 36.043 48.6523 35.9414 48.6367L36.1641 46.9609H37.3594C38.1406 46.9609 38.8242 46.6328 39.4102 45.9766C39.9961 45.3203 40.5859 44.3438 41.1797 43.0469L36.8789 32.0781L35.4375 31.7148V30.4023L41.0859 30.2852V31.7148L39.3984 31.9609L42.2812 40.3633ZM53.5781 31.9844C54.0312 31.5547 54.6562 31.125 55.4531 30.6953C56.25 30.2578 57.0742 30.0391 57.9258 30.0391C59.543 30.0391 60.6562 30.7266 61.2656 32.1016C61.6641 31.7031 62.2695 31.2617 63.082 30.7773C63.9023 30.2852 64.7852 30.0391 65.7305 30.0391C67.0117 30.0391 67.9492 30.418 68.543 31.1758C69.1445 31.9258 69.4453 32.9883 69.4453 34.3633V41.0781L71.25 41.6758V43H65.4844V41.6758L67.043 41.0781V34.5977C67.043 33.7148 66.8906 33.0742 66.5859 32.6758C66.2812 32.2773 65.7539 32.0781 65.0039 32.0781C64.3945 32.0781 63.8398 32.2227 63.3398 32.5117C62.8477 32.8008 62.4414 33.1133 62.1211 33.4492C61.8008 33.7852 61.6406 33.9688 61.6406 34V41.0781L63.2109 41.6758V43H57.6797V41.6758L59.25 41.0781V34.5977C59.25 33.7148 59.0977 33.0742 58.793 32.6758C58.4883 32.2773 57.9609 32.0781 57.2109 32.0781C56.6016 32.0781 56.0469 32.2227 55.5469 32.5117C55.0547 32.8008 54.6484 33.1133 54.3281 33.4492C54.0078 33.7852 53.8477 33.9688 53.8477 34V41.0781L55.4062 41.6758V43H49.4062V41.6758L51.4453 41.0781V32.1953L49.4062 31.7148V30.4023L53.3672 30.2852L53.5781 31.9844ZM73.7812 31C73.9062 30.9531 74.2188 30.8555 74.7188 30.707C75.2266 30.5508 75.8242 30.4023 76.5117 30.2617C77.1992 30.1133 77.8477 30.0391 78.457 30.0391C79.9102 30.0391 81.0117 30.3281 81.7617 30.9062C82.5195 31.4844 82.8984 32.4375 82.8984 33.7656V41.0781L84.8203 41.5586V42.8828L81.0938 43L80.5898 41.3242C80.0742 41.8398 79.4766 42.2891 78.7969 42.6719C78.125 43.0469 77.4102 43.2344 76.6523 43.2344C75.5195 43.2344 74.6367 42.9219 74.0039 42.2969C73.3711 41.6641 73.0547 40.7773 73.0547 39.6367C73.0547 38.3086 73.5312 37.3594 74.4844 36.7891C75.4375 36.2109 76.8008 35.9219 78.5742 35.9219H80.4961V34C80.4961 33.2969 80.3008 32.7617 79.9102 32.3945C79.5195 32.0273 78.9531 31.8438 78.2109 31.8438C77.7812 31.8438 77.3867 31.8711 77.0273 31.9258C76.668 31.9805 76.3828 32.0352 76.1719 32.0898C75.9688 32.1445 75.8438 32.1797 75.7969 32.1953L75.457 34H73.8984L73.7812 31ZM78.8203 37.4805C77.6328 37.4805 76.7812 37.6406 76.2656 37.9609C75.7578 38.2812 75.5039 38.8008 75.5039 39.5195C75.5039 40.0664 75.6602 40.5039 75.9727 40.832C76.2852 41.1602 76.7148 41.3242 77.2617 41.3242C77.793 41.3242 78.2969 41.1797 78.7734 40.8906C79.25 40.6016 79.6562 40.2891 79.9922 39.9531C80.3281 39.6172 80.4961 39.4336 80.4961 39.4023V37.4805H78.8203ZM94.3125 32.1953H90.832V39.9062C90.832 40.8828 91.2305 41.3711 92.0273 41.3711C92.543 41.3711 93.168 41.1719 93.9023 40.7734L94.5469 42.0391C93.4609 42.8359 92.3398 43.2344 91.1836 43.2344C90.3711 43.2344 89.707 42.9688 89.1914 42.4375C88.6836 41.8984 88.4297 41.0078 88.4297 39.7656V32.1953H86.0273V30.6367L88.4297 30.4023V27.3789L90.832 26.8984V30.4023H94.3125V32.1953ZM100.055 31.7734C100.57 31.3359 101.203 30.9375 101.953 30.5781C102.703 30.2188 103.469 30.0391 104.25 30.0391C105.531 30.0391 106.492 30.4219 107.133 31.1875C107.773 31.9453 108.094 33.0039 108.094 34.3633V41.0781L109.898 41.6758V43H104.133V41.6758L105.691 41.1016V34.5977C105.691 33.7305 105.531 33.0938 105.211 32.6875C104.891 32.2812 104.355 32.0781 103.605 32.0781C102.996 32.0781 102.426 32.2227 101.895 32.5117C101.371 32.8008 100.934 33.1133 100.582 33.4492C100.23 33.7852 100.055 33.9688 100.055 34V41.0781L101.613 41.6758V43H95.6133V41.6758L97.6523 41.0781V26.4414L95.6133 25.9609V24.6367L100.055 24.5195V31.7734ZM114.105 37C114.105 38.3125 114.426 39.3633 115.066 40.1523C115.707 40.9336 116.547 41.3242 117.586 41.3242C118.289 41.3242 118.941 41.2266 119.543 41.0312C120.145 40.8359 120.641 40.625 121.031 40.3984C121.422 40.1641 121.617 40.0312 121.617 40L122.461 41.2422C122.461 41.2734 122.199 41.4688 121.676 41.8281C121.16 42.1797 120.52 42.5039 119.754 42.8008C118.996 43.0898 118.191 43.2344 117.34 43.2344C115.449 43.2344 114.016 42.6641 113.039 41.5234C112.07 40.3828 111.586 38.7969 111.586 36.7656C111.586 35.5 111.832 34.3555 112.324 33.332C112.824 32.3086 113.52 31.5039 114.41 30.918C115.309 30.332 116.328 30.0391 117.469 30.0391C120.828 30.0391 122.508 31.918 122.508 35.6758C122.508 35.9336 122.492 36.1914 122.461 36.4492C122.43 36.707 122.406 36.875 122.391 36.9531L114.105 37ZM119.965 35.1953C119.965 34.2188 119.754 33.4297 119.332 32.8281C118.918 32.2188 118.254 31.9141 117.34 31.9141C116.41 31.9141 115.672 32.2266 115.125 32.8516C114.586 33.4766 114.277 34.2578 114.199 35.1953H119.965ZM126.633 41.2188C126.633 41.2344 126.832 41.2773 127.23 41.3477C127.629 41.4102 128.102 41.4414 128.648 41.4414C130.453 41.4414 131.359 40.8086 131.367 39.543C131.367 39.0273 131.145 38.6406 130.699 38.3828C130.262 38.1172 129.578 37.8398 128.648 37.5508C127.797 37.2773 127.105 37.0156 126.574 36.7656C126.051 36.5078 125.602 36.1406 125.227 35.6641C124.852 35.1797 124.664 34.5547 124.664 33.7891C124.664 32.5859 125.07 31.6602 125.883 31.0117C126.703 30.3633 127.762 30.0391 129.059 30.0391C129.621 30.0391 130.203 30.0938 130.805 30.2031C131.414 30.3047 131.93 30.4141 132.352 30.5312C132.781 30.6484 133.051 30.7266 133.16 30.7656L133.09 34H131.531L131.145 32.125C131.098 32.1094 130.992 32.0781 130.828 32.0312C130.672 31.9844 130.449 31.9414 130.16 31.9023C129.871 31.8633 129.551 31.8438 129.199 31.8438C127.777 31.8438 127.066 32.3789 127.066 33.4492C127.066 33.9648 127.293 34.3633 127.746 34.6445C128.207 34.918 128.898 35.207 129.82 35.5117C130.648 35.8008 131.328 36.0703 131.859 36.3203C132.391 36.5625 132.84 36.918 133.207 37.3867C133.574 37.8477 133.758 38.4297 133.758 39.1328C133.758 40.4609 133.258 41.4766 132.258 42.1797C131.258 42.8828 130 43.2344 128.484 43.2344C127.828 43.2344 127.219 43.1953 126.656 43.1172C126.094 43.0391 125.645 42.9609 125.309 42.8828C124.973 42.8047 124.766 42.7461 124.688 42.707V39.1562H126.375L126.633 41.2188Z" fill="#171617"/>
</svg>
